<?xml version="1.0" encoding="UTF-8"?>
<svg version="1.1" viewBox="0 0 2048 866" width="345" height="146" xmlns="http://www.w3.org/2000/svg">
<path transform="translate(0)" d="m0 0h2048v866h-2048z" fill="#FDFFFD"/>
<path transform="translate(1572)" d="m0 0h476v866h-523l-6-9-2-16v-18l3-18 6-18 7-13 1-5-5-1-3-2 1-7 4-10 6-8 11-5 3-1h15l18 4h11l4-4 3-9 5-13 1-2h8l28 9 16 2h15l19-2h8l8 4 3 1h9l13-4 3-1-3-8-11-18-6-16-5-22-4-16-5-15-11-23-11-16-9-8-7-2h-11l-44 7-9 3-16 8-3 1-25 1-4 32v17l2 16 3 12v3l-17 2-2 1 1 5 9 14 1 3v16l-3 11-6 8-14 1-5 3-10 18-6 7-11 8-8 4-11 2h-10l-8-2-5-4-1-8 6-7 13-10 11-12 10-15 8-16 5-11v-7l-5-8-4-33-1-11-1-23-5-16v-15l4-13 4-8 11-12 7-6 14-8 26-8 12-4 11-7 14-9 8-3 22-5 13-5 4-1v-4l-12-3 2-4 11-12 9-10 7-12 3-9-1-9-6-9-4-16-1-7-12 3-10 5-12 4-22 3-22 7-17 8-4-1-4-3-37-1-7-3-1-2v-10l3-12 6-12 6-7 7-6 9-19 3-3 6 1 6 4 6-2 6-5 3-7 1-11v-10l3-5 4-4 9-4-1-9-6-26-10-50-7-36v-2l-16 4-21 7-16 8-14 8-13 9-8 6-5-2-10-5-22-5-27-3-26-2-14-2h-31l-22 5-15 6h-1l-1-14-3-9-6-8-7-7-9-5-8-3 2-4 9-8 21-21 8-7 15-14 11-9 17-13 16-10 24-14 21-11 23-7 12-6 14-11 11-10 7-1 16 1h14l15-2 5-1v-10l4-1 3 9 7-1 10-4 16-8z" fill="#D10531"/>
<path transform="translate(2046,119)" d="m0 0h2v747h-514l7-14 4-20 5-12 7-10 18-20 11-14 8-7 6-1 6 4 6 1 13-4 6-2 17 1 29 6 13 4 23 5 39 5 23 1 15-2 9-6 5-7 3-15v-39l-3-55-3-19-3-40-3-22-1-19v-30l3-1 15 6 19 8 16 9 7 7 4 9 4 10 6 14 4 3 2-12 7-33 4-33v-17l-3-20-5-15-11-26-7-27-5-25-1-9v-13l4-8 9-11 7-9 12-14 7-7 4-5 8-7 8-8 14-11 9-7 9-11 14-21 10-14 13-15 35-35-9-12 1-5 5-5 8-7 3-4 2-7v-11l4-5 10-6z" fill="#FDFFFD"/>
<path transform="translate(1590)" d="m0 0h458v112l-6 4-13 4-2-3 2-1v-7l2-12 3-6v-8h-2l-2 9-6 14h-6l-2-2-2-10 4-10 5-7-13 5-4-2 1-4 2-4-6-1-1 5 2 10 1 10v12l-3 4h-6l-1-1-2-16-6-1v32l7 16v9l-35 35-8 7-10 9-11 9-14 12-17 13-8 9h-2l-2 5-7 8-7 10-5 4-17 1-5 5-4 2-12 1-7 3-7 8-4 6h-6l-10-6-3-5 1-6 7-9 3-3 3-8 2-10v-2l-7-1-3-5 2-5 3-2-2-10-2-13-4-8-7-8-13-3-18-9h-11l-6 4-5 4-5 6-12 4-2 6-3 11-1 4 1 7-3 12 2 6 1 1 1 9-1 8 4 9 6 8 8 10-1 5-8 5-5 12-5 4h-14l-11-3-6 2h-8l-12-1-5 6-9 12-11 11-14 4-15 11-6 3h-4l-2-4v-9l4-7v-14l-2-17-3-1-1-6 2-4 4-4-10 3-5-1-3-7-9-42-13-65-1-6 6-2 33-3h13l34 3 8 2h6l9-10 12-11 10-7 18-10 19-9 17-9 23-10 18-6 12-2h17l-4-10-4-11v-13l5-10 9-10 3-3-3-3-21-8-30-10-31-8-21-5-23-5-29-4h-19l-12 3-10 4-12-3-22-10z" fill="#FDFFFD"/>
<path transform="translate(1572)" d="m0 0h18l25 11 10 2 15-6 6-1h19l35 5 31 7 42 11 35 12 14 6 2 3-5 5-8 9-4 9-1 17-2 9-5 4-22 3v2l-5 1-9 3-18 8-6 3h-2l-1 2-10 5h-2l-1 2-17 8-9 5-7 5-7 4-5 4h-2v2l-5 1-1 3-5 2v2l-5 2-25 2-6 1-1-1h-11-4l-10-1h-13l-9 3-19 1-1 2-9 2-12 1-7 2-10 3-12 5-8 4-11 5-9 4-14 2-2 1h-21l-12-3-37-2-19-2-23-1-5-1-10 1h-16l-17-4-10-5-4-5-5-8-2-8-4-1-3-4 1-7 2-3h2v-2h2l2-4 5-5 3-1 1-3 4-1 2-4 6-5 5-5 12-10 1-2h3v-2l7-5h2l1-3 5-3 10-8 2-2 1-4 24-14 21-11 23-7 12-6 14-11 11-10 7-1 16 1h14l15-2 5-1v-10l4-1 3 9 7-1 10-4 16-8z" fill="#D10531"/>
<path transform="translate(756,271)" d="m0 0h35l11 2 6 4 1 2v39l-2 1-12-2h-18l-7 4-4 8-2 7-1 34h43v45l-6 1h-36l-1 131h-45l-9-1v-131l-35 1h-39l1 73 3 9 4 2 5 3 8 2 9-1 17-3 1 2v31l-1 10-8 3-18 3h-25l-14-3-16-8-9-9-8-16-3-11-1-9-1-78-29-1v-45h30v-44l49-12 6-1 1 56 73 1v-24l1-26 3-13 7-13 9-10 10-7 12-5z" fill="#070203"/>
<path transform="translate(91,366)" d="m0 0h19l17 4 12 5 10 6 10 9 9 10 9 16 5 16 2 11 1 15-1 14-7 24-7 13-7 9-14 14-16 9-12 5-12 3-7 1h-22l-16-3-10-3v81h-35l-19-1v-253l14-1h39l1 9 8-3 14-7z" fill="#040202"/>
<path transform="translate(1266,366)" d="m0 0h22l13 2 17 5 19 10 13 11 8 9 8 13 5 11 4 14 1 6v21l-4 19-5 12-9 14-10 12-13 9-11 6-15 6-19 4-8 1h-11l-20-3-15-5-16-8-12-9-11-11-10-15-6-15-3-16v-22l3-16 7-16 7-11 11-12 10-8 13-8 19-7 8-2z" fill="#060202"/>
<path transform="translate(901,366)" d="m0 0h23l13 2 16 5 17 8 11 8 9 8 10 14 8 17 4 16v28l-4 18-8 16-8 10-7 8-13 10-17 9-16 5-11 2h-28l-16-3-14-5-15-8-13-10-10-11-8-13-5-11-4-17-1-7v-16l4-19 7-16 7-11 16-16 18-11 15-6 12-3z" fill="#050202"/>
<path transform="translate(289,366)" d="m0 0h26l15 3 15 5 14 7 11 8 13 13 8 13 6 13 3 12 1 7v23l-3 16-7 17-10 13-7 8-15 11-16 8-16 5-12 2h-26l-19-4-15-6-11-6-13-10-10-11-9-14-6-16-3-18v-15l4-20 10-21 7-9 13-13 18-11 19-7z" fill="#050202"/>
<path transform="translate(1060,274)" d="m0 0h21l1 1v271l-1 1h-54l-1-1v-216l1-55z" fill="#080203"/>
<path transform="translate(523,367)" d="m0 0h13l1 1 1 51h-23l-14 3-16 8-8 6-1 2-1 22v86l-1 1h-42l-12-1v-176h54l-1 22 6-4 7-7 13-8 16-5z" fill="#060202"/>
<path transform="translate(1356,85)" d="m0 0h2l-1 4-14 12-3 1-5 5-5 2v2h-3l-2 4-13 11h-2l-1 3-7 6-3 3-8 7h-2l-3 6h-2v2h-2l-2 6 1 5 1 3 4 1 2 3 3 9 7 9 10 4 18 4h17l8-1 5 1h8l14 1 19 2 37 2 14 3h19l10-2 9-2 9-4 9-5 7-3 20-8 8-1 7-2h7l14-4 14-1 8-1 1-2h19l4 1 4-1 5 1h7v2l6-2 25-2 5-1v-2l5-3 3-3h3v-2l6-4 5-4 7-4 10-6 30-15 14-8 11-4 10-4 6-2 2 1v-2l15-3 7-1 5-5 2-11 2 4 6 13v4l-25 2-16 5-16 6-29 14-17 9-16 8-11 7-14 12-8 8-3 4-9-1-15-2-24-2h-13l-33 3-5 1 5 27 14 68 5 21 2 4 7-1 7-2v3l-4 2-1 6 1 4 3 3 2 19v10l-4 7v9l1 4 10-4 15-11 14-4 12-12 7-10 6-7 20 1 7-2 10 3 13 1v1h-23l-15 4-12 2-4 7-5 5-8 7-7 2-9 3-6 3h-2v2l-6 3-2 3-6 3-2 2-14 3-3 2-12 2-5 1v2l-5 2h-5l-5-6v-2l-4-2v-2h-2v-2l-9-1-4-2-4 4-4 6-3 5-5 6h-2l-1 9 2 6 10 8 12 5 16 2 9-1 9-3 10-3 25-5 14-3 10-3 7 2-3 2-7 3-9 4-9 3-22 3-22 7-17 8-4-1-4-3-37-1-7-3-1-2v-10l3-12 6-12 6-7 7-6 9-19 3-3 6 1 6 4 6-2 6-5 3-7 1-11v-10l3-5 4-4 9-4-1-9-6-26-10-50-7-36v-2l-16 4-21 7-16 8-14 8-13 9-8 6-5-2-10-5-22-5-27-3-26-2-14-2h-31l-22 5-15 6h-1l-1-14-3-9-6-8-7-7-9-5-8-3 2-4 9-8 21-21 8-7 15-14 11-9 17-13z" fill="#F30C38"/>
<path transform="translate(1108,370)" d="m0 0h55l1 20v113l-1 44h-43l-12-1z" fill="#050202"/>
<path transform="translate(1272,412)" d="m0 0h10l11 3 8 4 10 9 6 10 4 11 1 5v9l-3 13-6 11-9 9-12 6-13 2h-8l-10-2-11-6-9-9-6-12-3-11v-14l4-12 7-10 8-8 12-6z" fill="#FDFFFD"/>
<path transform="translate(297,412)" d="m0 0h10l12 3 9 5 11 11 6 12 2 7 1 10-3 14-6 12-7 8-10 6-9 3-15 1-11-2-10-5-9-8-7-12-4-16 1-13 5-12 6-8 7-7 10-6z" fill="#FDFFFD"/>
<path transform="translate(907,412)" d="m0 0h11l12 3 9 5 8 7 7 11 4 12 1 10-4 17-6 10-7 8-14 7-14 2-13-1-10-4-9-7-6-8-5-10-3-13 1-12 5-13 7-9 9-8 10-5z" fill="#FDFFFD"/>
<path transform="translate(79,411)" d="m0 0h14l10 3 10 6 7 7 7 14 2 7v24l-4 11-7 10-8 7-9 4-11 3h-13l-20-5-3-6v-71l3-5 14-7z" fill="#FDFFFD"/>
<path transform="translate(1144,611)" d="m0 0h8l14 7 8-5 9-2 9 1 8 5 4 5 2 7-1 41h-18l-1-43h-9l-8 2-1 7-1 33-7 1h-9l-1-1-1-41h-14l-5 1v14l-1 26-1 1h-15v-57l1-1 14 1 1 1h7z" fill="#0B0203"/>
<path transform="translate(2e3 70)" d="m0 0 7 2-4 8 4 1 11-4h2l-2 4-4 7-2 9 3 8 6 1 3-9 5-14h2l1 2v6l-3 6-2 12v8l-2 1 2 1 14-5 4-2v7l-11 9-9 6-1 7-1 9-2 5-9 10-5 2-2 4-3-4-1-5h2l1-3 7-5 1-2h2l2-5h2v-12l1-2h-2l-3-7-2-1 1-6-4-1-1 2h-2v3l-5 1 1 3-3 3-1 10 1 7-1 4 2 4-1 4-4 3-8 2v2l-5 2-1 3-4 4-1 2-3 1-3 5-4 1-2 5-12 12-14 8-13 10-9 7-5 4h-2l-1 3-4 1-1 3h-2l-2 5h-2v2l-3 3h-2v3l-20 20-4 2-8 2-10 1-1 3-6 2-9 4-3-1v2l-7 2-4 2-1 4-7 4-2-1 6-9 5-5 6-2 12-1 4-2 5-5 17-1 6-5 9-13 6-8 12-12 12-9 13-11 11-9 15-13 16-15 25-25v-9l-7-16v-16l1-16 4-1 3 2 2 16h6l2-3v-12l-2-15-1-9z" fill="#F30C38"/>
<path transform="translate(935,595)" d="m0 0 3 1 1 4v11l1 1 15 1-1 11-1 3h-14l1 26 5 3h10l1 2-3 10-2 2h-18l-6-4-4-6-2-9-1-24-28 4-2 39h-18v-55l2-3 15 1 3 4v2l5-3 2-3 3-1h18v-13z" fill="#0B0203"/>
<path transform="translate(1546,529)" d="m0 0h2v2l-16 6-5 3-4 2-1 3-5 2-1 3h-2l-5 10h-2l-2 5-4 6-3 13-1 2v8l1 6 1 14 2 2 3 26 1 14v8l4 18 3 8-1 7-3 9-3 8-4 8-1 5 1 4-2 9 5 3-2 10h2l1-3 5-1 6-5v-2h2l2-4 5-1-8 14-5 8-5 6-11 8-8 4-11 2h-10l-8-2-5-4-1-8 6-7 13-10 11-12 10-15 8-16 5-11v-7l-5-8-4-33-1-11-1-23-5-16v-15l4-13 4-8 11-12 7-6 14-8z" fill="#F30C38"/>
<path transform="translate(1133,284)" d="m0 0 10 1 9 4 8 7 5 8 2 7v10l-4 10-6 8-8 5-6 2h-14l-11-4-9-9-5-11v-13l6-12 7-7 11-5z" fill="#070202"/>
<path transform="translate(663,611)" d="m0 0h7l10 3 8 7 5 11 1 4v9l-4 2h-36l3 6 6 3h16l13-3-2 9-6 7-10 2h-8l-11-2-10-6-6-9-3-7v-12l4-10 7-8 10-5z" fill="#0F0204"/>
<path transform="translate(834,611)" d="m0 0 13 1 10 6 6 10 2 9-1 9-9 1h-28l1 4 4 4 3 1h14l13-4v7l-4 8-5 3-13 1-14-2-10-7-6-9-3-8v-9l4-10 7-9 11-5z" fill="#0D0204"/>
<path transform="translate(1238,611)" d="m0 0 11 1 8 4 7 8 3 8v13l-1 1-9 1h-27l1 5 4 3 3 1h14l8-3 5-2 1 4-2 8-5 6-3 1h-23l-8-3-9-8-4-8-1-3v-15l5-10 5-6 8-4z" fill="#0D0204"/>
<path transform="translate(972,612)" d="m0 0h20l9 4 5 7 2 12 1 17 3 5 3 4v9l-11 1-7-1-3-5h-4l-4 5-11 1-10-2-8-11-1-2 2-11 4-5 10-4h18l-1-6-7-4h-8l-11 3-2-1v-9l4-5z" fill="#0C0204"/>
<path transform="translate(1081,611)" d="m0 0 10 1 8 5 5 8v45h-18l-1-40-1-2h-13l-5 2-1 39-3 1h-13l-1-3v-46l1-8 1-1h9l5 2h7z" fill="#0C0204"/>
<path transform="translate(1307,611)" d="m0 0 10 1 7 5 5 8 1 6v38l-1 1h-17l-1-3-1-38-5-2-9 1-5 1-1 40-1 1h-14l-1-1v-56l1-1h11l3 2h8z" fill="#110205"/>
<path transform="translate(1806,698)" d="m0 0h1l1 22v39l-3 15-6 8-9 6-15 2-23-1-39-5-31-7-13-4-21-4-17-1-14 5-8 1-8-4-5-1-8 6-11 13-7 8-9 10-6 8-6 10-2 2-1-5 2-6 2-4 4-6 12-12 1-2h2l1-4h2l2-4 6-8 4-4h3v-2l7-4 3-3 12 2v2l24-5h13v2l3-1 13 2 15 2 7 1 16 4 15 1 25 4 21 2 15 2h18l5-3 5-9 1-8z" fill="#F40D39"/>
<path transform="translate(733,611)" d="m0 0h8l8 3 5 5 2 6v44l-2 1h-13l-1-1-1-34-2-6-4-2h-7l-6 3-1 31v8l-1 1h-17v-57l1-1h10l7 2 4 1z" fill="#0D0204"/>
<path transform="translate(785,595)" d="m0 0 4 1 1 7 1 9 13 1 2 2-1 12h-14v24l2 4 8 1h5l-1 10-4 4h-16l-6-3-5-8-2-7-2-24-6-3-1-1v-9l2-2 6-1 1-13 5-2z" fill="#0B0203"/>
<path transform="translate(1356,595)" d="m0 0 3 1 1 6v7l1 3 15 1v13l-2 1-13 1v24l3 4h11l1 2-1 9-2 2-6 1h-13l-5-3-5-7-2-12-1-20-6-1-2-6v-6l7-3h2v-12l3-2z" fill="#0F0204"/>
<path transform="translate(2006,172)" d="m0 0 2 3 9 11-6 7-33 33-9 11-10 14-10 15-8 11-8 9-12 9-13 11-25 25-18 22-2 1 1-5 3-3 3-6 4-5 3-5 2-3h2l1-3 5-5 11-12 5-4 5-5 5-4h2l1-3 5-2 5-3 7-6 3-4h2l2-6 4-5 2-4 5-5 4-7 8-11 5-10 3-8 4-5 4-10 1-2-6 3-3-1v-4l5-5 3-4h3l1-5h7l1-3h4l1 2 3 1 2-4h2l1-6z" fill="#F40D39"/>
<path transform="translate(1637,572)" d="m0 0h33l8 3 5 5 5 4v2h2l6 8 5 9 3 9 7 16 3 9 5 14 2 12 7 24 5 13 4 8 1 5-2 1-12-20-6-16-5-22-4-16-5-15-11-23-11-16-9-8-7-2h-11l-44 7-9 3-16 8-3 1-25 1-3 22h-1v-16l3-7 4-3 8-4 18-4 5-2 6-2 11-4 11-1 9-2z" fill="#F30C38"/>
<path transform="translate(1551,735)" d="m0 0h15l18 4 2 2-11-1-9-2-8 1-8 3-2-3-4 2h-3l-3 11-3 14 2 6 1 4-3 7-2 5-3 14v12l-1 15 1 6-1 4 2 6 7-2 5-2v7l-4 11-5 7h-9l-6-9-2-16v-18l3-18 6-18 7-13 1-5-5-1-3-2 1-7 4-10 6-8 11-5z" fill="#F30C38"/>
<path transform="translate(1747,184)" d="m0 0h11l21 10 10 2 8 9 4 8 2 13 2 10-5 3 1-7-2-3-1-13-6-8-5-5-7-1-9-1-4-3v-2l-4 1-4-1h-10l-11 4h-3l-1 5-3 1-3 3-6 2-2 12-1 11-1 6v3l1 6-1 2 2 1v14l5 16 2 3-1 3-8-10-4-8-1-8 1-5-1-7-2-2-1-7 3-10-1-10 3-7 2-10 4-3 10-3 7-8z" fill="#F30C38"/>
<path transform="translate(1646,6)" d="m0 0h19l35 5 31 7 42 11 35 12 14 6 2 3-5 5-8 9-4 9-1-4 2-13h2l-2-7-16-8-8-3h-5l-1-2-9-2-10-3-9-2-10-3-9-2-17-4-8-2-6-4-13-1h-52l-3-3 8-3z" fill="#F30C38"/>
<path transform="translate(1021,612)" d="m0 0 16 1v56l-2 1h-14l-1-3v-54z" fill="#060202"/>
<path transform="translate(1798,532)" d="m0 0 7 1 8 3 13 5h3v2l5 1 15 9 3 1v2l6 2 5 5 1 5 3-1 1 3 2 1-1-3 7-5 1-2h2l1-2-1 11-7 30-4-2-5-10-5-12-4-10-7-8-16-9-19-8-17-7z" fill="#F40D39"/>
<path transform="translate(1546,529)" d="m0 0h2v2l-16 6-5 3-4 2-1 3-5 2-1 3h-2l-5 10h-2l-2 5-4 6-3 13-1 2v8l1 6 1 17-3 1-3-12-3-10v-15l4-13 4-8 11-12 7-6 14-8z" fill="#F40D39"/>
<path transform="translate(1521,11)" d="m0 0 4 1 2 8 5 1-3 2-12 3-2 1h-13l-7 3h-5l-6 2-14 1-4 1-9 3v2l-4 2-1 2-7 4-4 3-5 1v-4l11-8 10-9 6-5 7-1 16 1h14l15-2 5-1v-10z" fill="#F40D39"/>
<path transform="translate(1572)" d="m0 0h18l22 10-4 2h-8l-9-4-9-1-15 7-4 2-10 2h-5l-2-4 16-8z" fill="#F30C38"/>
<path transform="translate(1583,357)" d="m0 0h5l3 5-1 7-5 3-11 3-10 3-4-4-1-6 3-3 9-4z" fill="#FDFFFD"/>
<path transform="translate(1608,711)" d="m0 0h8l28 9-4 4h-10l-6-2h-10v2l-4 4-4 6h-2l-1 3h-4l3-11 5-13z" fill="#F30C38"/>
<path transform="translate(1660,438)" d="m0 0h2l2 7-8 16-8 11-9 9 1 4 4 4-2 3h-2v-4l-12-3 2-4 11-12 9-10 7-12z" fill="#F40D39"/>
<path transform="translate(1022,586)" d="m0 0h11l5 4v8l-4 6-2 1h-8l-3-1-2-7 1-9z" fill="#0F0204"/>
<path transform="translate(1583,311)" d="m0 0 3 1 1 3 1 5 2 6 1 6 4 1-1 4-4 1v-3l-1 4 6 2-1 9-7 2-6-2 2-12 3-5v-6l-2-3v-2l-2-9z" fill="#D10531"/>
<path transform="translate(1868,271)" d="m0 0 1 2-16 2-1 3-6 2-9 4-3-1v2l-7 2-4 2-1 4-7 4-2-1 6-9 5-5 6-2 12-1 4-2 5-5z" fill="#F40D39"/>
<path transform="translate(834,624)" d="m0 0h6l8 5 1 5-6 1h-17l-1-3 5-6z" fill="#FDFFFD"/>
<path transform="translate(1237,624)" d="m0 0h6l6 4 3 3v3l-4 1h-18l-1-5 6-5z" fill="#FDFFFD"/>
<path transform="translate(663,624)" d="m0 0h7l5 3 1 7-5 1h-17l-1-3 8-7z" fill="#FDFFFD"/>
<path transform="translate(1629,496)" d="m0 0 3 1-7 3-2 2-20 4-8 2v2l-9 5-2 2-10 6-8 1 4-3 18-12 9-5 26-6z" fill="#F40D39"/>
<path transform="translate(980,646)" d="m0 0h9l2 2v6l-2 3h-13l-2-3v-5l2-2z" fill="#FDFFFD"/>
<path transform="translate(1882,485)" d="m0 0 2 4 2 16v17l-3 26-2-1 1-40z" fill="#F40D39"/>
<path transform="translate(1648,397)" d="m0 0 2 1v2l3 1 4 11 4 16v5l-2-4-6-9-4-16z" fill="#F40D39"/>
<path transform="translate(1799,243)" d="m0 0 3 4 7 2 1 4-5 16-6 7-1-4 6-11 1-7 1-1-7-5z" fill="#F40D39"/>
<path transform="translate(1521,11)" d="m0 0 4 1 2 8 5 1-3 2-12 3-2 1h-6l1-3 10-2v-10z" fill="#F30C38"/>
<path transform="translate(1551,735)" d="m0 0h15l18 4 2 2-11-1-9-2-8 1-8 3-2-3-4 2-3-1 7-4z" fill="#F40D39"/>
<path transform="translate(1732,294)" d="m0 0h1v6l-4 6-5 6-3 5-5 1 6-14 9-6z" fill="#F40D39"/>
<path transform="translate(1555,661)" d="m0 0h1l3 12v3l-7 1h-10l3-3 9-3v-7z" fill="#F40D39"/>
<path transform="translate(1694,720)" d="m0 0h8l6 3-4 2-10-1-19-1v-1z" fill="#F40D39"/>
<path transform="translate(1420,54)" d="m0 0 2 1-2 4-6 3h-7l-1-4z" fill="#F30C38"/>
<path transform="translate(1635,347)" d="m0 0m-4 1 4 1-9 4-5 1v2l-6 3-2 3-5 1 4-5 11-8z" fill="#F40D39"/>
<path transform="translate(1793,287)" d="m0 0 4 5 9 5 6 1v1h-8l-8-5-3-3z" fill="#F40D39"/>
</svg>
