<?xml version="1.0" encoding="UTF-8"?>
<svg version="1.1" viewBox="0 0 1024 1024" width="1024" height="1024" xmlns="http://www.w3.org/2000/svg">
<path transform="translate(0)" d="m0 0h1024v1024h-1024z" fill="#202027"/>
<path transform="translate(205,485)" d="m0 0h365l19 3 18 6 17 9 13 11 10 10 12 17 8 17 5 16 2 12v33l-4 21-6 16-9 17-9 11-12 13-31 31-8 7-15 15-8 7-42 42-11 9-20 18-5 2-38-6-30-8-13-5v-3l102-102 4-5 8-7 12-12 5-6 9-9h2l2-4 10-10 8-7 11-11 2-5 3-34 1-2-100 1h-278l-4-15-5-29-1-10v-43z" fill="#49F7ED"/>
<path transform="translate(689,406)" d="m0 0h31l16 4 22 9 17 9 12 9 12 11 7 7 10 14 8 16 6 14 6 23 2 19v16l-4 28-8 28-12 30-10 21-13 21-14 21-9 10-9 11-17 17-11 9-10 9-12 9-15 10-18 10-25 12-23 9-28 8-33 7-20 2v-3l4-5 5-4 7-8 86-86h2l2-4 8-8 7-8 11-13 8-11 11-23 4-13 3-15 1-11v-25l-3-23-3-12-8-19-9-17-9-13-12-14-12-11-14-10-23-12-12-5-1-4 15-9 14-9 10-6 17-10 5-6 11-4z" fill="#FD6C72"/>
<path transform="translate(543,190)" d="m0 0h21l19 3 17 5 12 5 15 9 11 8 7 6 9 11 9 14 7 16 4 19 1 13v11l-3 21-5 16-5 12-9 14-9 11-10 11-14 11-18 10-19 7-12 3-7 1h-21l-13-2-22-6-18-10-16-12-11-10-9-11-9-15-6-13-5-16-2-15v-20l3-19 7-19 8-16 7-9 12-13 12-10 16-9 13-5 24-6z" fill="#49F7ED"/>
<path transform="translate(226,627)" d="m0 0h318l-2 5-8 7-15 16-133 133-7 6-5-2-20-11-21-14-14-11-15-14-4-3v-2l-4-2-11-12-9-11-11-13-12-17-14-24-11-23-2-5z" fill="#49F7ED"/>
<path transform="translate(438,196)" d="m0 0h6l-4 7-8 9-11 15-10 21-6 18-3 14-2 19v18l2 14 6 23 6 15 12 20 9 11 11 12 12 11 8 6 14 8 14 7v4l-7 2h-15l-30-2-17-1-15-3-15-6-22-12-12-9-10-9-19-19-11-15-10-19-7-18-4-18-1-9v-22l4-11 9-10 8-7 13-11 15-11 20-12 23-12 19-8z" fill="#49F7ED"/>
<path transform="translate(265,320)" d="m0 0 2 3 5 12 6 16 12 23 10 16 13 18 12 14 10 9 13 10 6 5-1 3-35 1h-107l1-10 7-26 7-21 11-25 8-16 6-11 11-17z" fill="#49F7ED"/>
<path transform="translate(725,281)" d="m0 0h13l15 1 9 9 11 16 12 18v3l-12 8-8 8-6 7-6 2-9 1-45 1 3-9 4-14 1-6v-37l-1-6z" fill="#FE6C72"/>
<path transform="translate(567,274)" d="m0 0h13l8 4 7 7 4 10v10l-5 10-9 8-9 3-10-1-7-4-5-5-5-7-2-11 2-8 5-8 8-6z" fill="#202027"/>
</svg>
