<?xml version="1.0" encoding="UTF-8"?>
<svg version="1.1" viewBox="0 0 2048 756" width="349" height="129" xmlns="http://www.w3.org/2000/svg">
<path transform="translate(0)" d="m0 0h2048v756h-2048z" fill="#FEFEFD"/>
<path transform="translate(347,310)" d="m0 0h18l16 4 14 7 11 8 10 9 13 13 12 16 11 18 6 12 4 16 1 8v21l-4 15-7 14-7 9-15 15-18 13-14 7-16 5-5 1h-15l-15-2-13-7-12-9-10-9-10-10-10-13-12-18-8-15-6-18-2-9v-22l4-16 8-16 8-11 12-12 16-11 16-8 12-4z" fill="#0E7275"/>
<path transform="translate(1319,128)" d="m0 0h22l20 4 19 8 16 10 15 15 7 11 5 10 1 14v24l-3 19-7 24-7 16-8 15-8 10-7 8-13 10-14 7-14 3h-27l-25-5-13-5-14-10-12-12-7-10-5-11-4-14-1-6v-21l4-23 6-21 7-17 7-13 10-14 8-8 10-7 14-7 11-3z" fill="#0E7275"/>
<path transform="translate(1887,485)" d="m0 0h23l15 4 16 8 14 11 11 11 10 13 8 13 4 9 2 15v16l-3 13-8 16-7 11-13 15-9 9-14 11-18 12-16 8-11 4-10 2h-22l-14-3-13-7-14-11-12-12-10-13-9-15-5-13-3-16 1-12 4-15 8-16 8-11 12-14 12-11 17-13 16-9 11-5 14-4z" fill="#0E7275"/>
<path transform="translate(596,176)" d="m0 0 13 1 12 4 10 7 9 9 7 11 5 10v17l-3 13-6 12-12 14-1 2 10 1 9 3 15 10 10 8 10 9 12 10 10 6 18 5 3 5-6 5-19 9-22 9-3 2-5-1-11-8-13-11-11-10-22-18-12-8-3-1h-8l-9 4h-3l2 9 12 25 5 12 7 12 5 5 10 2 5 6v2l-10 6-39 16-15 5-5 2-5-1-1-4 3-6 4-4 1-9-8-22-12-27-20-47-13-30-6-12-10-13-2-1-9-1-4-3 1-5 16-8 34-15 34-14 18-6z" fill="#0E7275"/>
<path transform="translate(159,487)" d="m0 0 12 2 16 8 13 11 9 11 7 12 1 10v12l-3 14-8 16-8 11-9 11-11 12 2 4 11 7 4 5 14 11 13 10 8 4 6-1 11-4 4 2 1 5-10 14-9 11-11 13-8 10-12 11-3-1-5-5 4-8v-6l-8-9-8-7-17-14-13-11-11-9-13-11-11-9-17-14-20-15-4 1-5 5h-9l1-5 2-1h10l1-4-5-2-6-2h-5l-5 3-7-2-1-4 9-11 12-14 8-10 12-14 8-10 9-10 7-8 8-8 10-7 8-5 12-4z" fill="#0E7275"/>
<path transform="translate(1018,88)" d="m0 0h16l61 2 65 4v17l-2 32-1 4h-2l2 5h-3l-2-10-12-2-4-4-5-12-7-8-5-3-16-2-25-1-2 57v15l22 1 9-3 10-19h11l4 2v30l-3 40-3-4-11-3-4-5-7-13-7-4-14-2h-8l-1 7-2 51v11l3 6 4 3 6 3 6 12h-20l-36-2-22-2-5-2-1-1v-5l12-8 3-4 2-12 3-56 3-77v-15l-3-6-12-11-1-4z" fill="#0E7275"/>
<path transform="translate(908,93)" d="m0 0 3 1 8 43 1 11h-18l-5-4-10-14-5-6-8-4-17 1-5 1 1 12 8 47 13 72 6 25 4 9 12 6 3 4v4l-9 3-43 7-21 3h-7l-3-3 1-4 10-8h2l2-6-1-14-15-85-7-40-5-22-3-1-17 4-7 4-5 10-4 20-4 8v8l-3 1v-13l-13 1-2-6-7-39-1-4 7-3 42-8 80-14z" fill="#0E7275"/>
<path transform="translate(1546,202)" d="m0 0 9 3 31 16 23 13 6 4 1 3-3 5-13 1-6 4-11 18-14 26-13 23-17 33-13 23-9 17 1 4 10 4 4 4 13 6 6 2 9-1 10-5 10-9 8-8 5-1 13 7 1 5-7 12-14 22-7 12-2 5-4-2-29-16-19-10-29-15-23-13-10-7-11-8-1-3 9-5 7 1 6-3 6-7 30-56 13-24 14-26 13-25 1-3v-7l-6-13 1-5z" fill="#0E7275"/>
<path transform="translate(324,339)" d="m0 0h10l12 4 11 7 12 9 10 9 9 9 13 17 11 16 10 18 5 14 2 10v9l-3 10-7 10-8 6-11 4h-9l-12-3-11-6-13-11-9-9-11-14-10-13-10-15-9-16-6-12-3-10-1-13 4-13 10-11 10-5z" fill="#FDFEFD"/>
<path transform="translate(1919,517)" d="m0 0h12l12 6 10 9 5 8v16l-4 12-6 11-8 11-9 10-13 13-11 9-17 13-15 9-13 6-13 3h-12l-8-3-10-9-6-10-2-7v-13l5-12 6-10 7-9 9-10 15-15 11-9 13-10 16-10 10-5z" fill="#FDFEFD"/>
<path transform="translate(1334,148)" d="m0 0h13l11 4 10 7 6 8 3 8 1 5v24l-4 25-7 26-7 20-8 16-6 9-7 8-11 7-7 2h-11l-12-5-8-8-7-12-2-7v-28l4-24 6-25 7-20 9-17 8-10 5-6 10-6z" fill="#FDFEFD"/>
<path transform="translate(1755,329)" d="m0 0 6 2 16 12 14 11 16 13 9 7 3 4-1 4-2 2h-7l-2-1h-8l-10 9-9 10-10 13-11 14-14 18-13 16-10 13-11 13-11 15-4 8v8l4 10-2 6-1 2-5-2-18-14-14-11-11-9-10-9-6-5 2-4 5-3 11 1 8-4 9-10 10-13 13-16 9-12 10-12 10-13 9-11 12-16 9-11 6-10 1-7-3-10v-6z" fill="#0E7275"/>
<path transform="translate(130,526)" d="m0 0h10l12 4 14 10 10 9 6 7 3 9-1 12-4 9-7 11-7 9-6-2-14-11-14-12-11-9-7-6v-2l-5-2-9-6 1-6 12-14 9-7z" fill="#FCFDFC"/>
<path transform="translate(564,204)" d="m0 0h14l10 4 11 11 6 10 4 11 1 5v13l-7 14-8 7-15 8-9 1-10-23-8-18-2-5-7-15-3-5-1-9 8-4z" fill="#FDFDFC"/>
<path transform="translate(1819,379)" d="m0 0 12 12-2 4-1 1h-16l-9 6-10 11-9 12-12 15-9 12-13 16-9 12-13 16-13 17-6 9-2 4v7l3 6v6l-2 2-4-1-9-7 2-1 2-8-4-10v-8l4-8 12-16 12-14 10-13 13-16 9-12 12-15 9-12 12-14 8-8 3-2h8l2 1h7z" fill="#96C3C8"/>
<path transform="translate(1417,174)" d="m0 0 4 4 8 14 5 12 2 7v24l-5 26-6 20-7 17-8 14-9 11-10 10-13 8-12 5-9 2h-23l-21-4-16-6-13-7-6-4 2-1 15 5 21 4h27l16-4 12-6 10-8 7-6 10-13 12-23 8-24 4-19 1-8v-24l-1-14-5-10z" fill="#95C3C8"/>
<path transform="translate(1983,543)" d="m0 0 3 3 9 15 5 15v25l-4 14-8 16-11 14-21 21-12 9-18 11-13 6-14 4-6 1h-20l-12-3-14-7-12-8 2-1 11 5 11 2h22l16-4 16-7 16-10 16-12 13-12 10-11 9-13 8-16 3-10 1-5v-16l-2-15-4-9z" fill="#95C2C7"/>
<path transform="translate(1613,244)" d="m0 0 1 2 8 2 6 3v4l-5 3-11 1-7 6-10 17-12 23-12 22-12 23-13 23-11 20-6 8-1-2-6-1-5-3-1-4 10-19 10-18 15-28 16-30 13-23 9-16 7-9 4-2h13z" fill="#96C3C8"/>
<path transform="translate(1919,517)" d="m0 0h12l12 6 5 5-25 5-13 5-13 7-14 10-10 8-13 11-11 11-9 11-9 12-6 13-2 9v10l1 5-6-5-6-12-1-4v-13l5-12 6-10 7-9 9-10 15-15 11-9 13-10 16-10 10-5z" fill="#96C3C8"/>
<path transform="translate(447,376)" d="m0 0 5 5 9 15 6 12 6 18 1 5v24l-3 12-8 16-8 11-8 9-11 9-15 10-16 7-17 4h-10l-14-3-16-8-9-6 2-1 6 3 15 2h15l16-4 12-5 14-9 13-10 15-15 9-15 5-15 1-5v-21l-3-17-4-11-8-15z" fill="#96C3C8"/>
<path transform="translate(1334,148)" d="m0 0h13l11 4 9 6-3 1-20 4-10 5-9 9-8 13-7 15-9 27-5 23-2 13-2 35 2 4-5-5-6-10-2-7v-28l4-24 6-25 7-20 9-17 8-10 5-6 10-6z" fill="#95C3C8"/>
<path transform="translate(871,119)" d="m0 0 6 1 6 4 2 4-6 4-10 2h-7l6 35 12 69 9 46 2 5 2 2-5-1-6-4-5-15-6-29-16-89-4-26v-5l6-2z" fill="#A9C3C8"/>
<path transform="translate(211,522)" d="m0 0 4 4 8 13 4 10 1 4v16l-4 15-8 16-10 14-11 12-4 4-4-4-9-6v-4l7-7 11-14 8-10 8-15 3-10 1-7v-12l-1-10-4-7z" fill="#96C3C8"/>
<path transform="translate(1919,517)" d="m0 0h12l12 6 5 5-25 5-11 4h-2v-4l-9 1-16 7-10 7-14 10-7 7-5 4-3 4h-2l-2 4-5 6-4-2-2 6-8 13-3 8h-3l-1-1-1 7-1 2h-3l1-8 8-16 8-11 11-12 14-14 11-9 13-10 16-10 10-5z" fill="#A8C3C8"/>
<path transform="translate(1080,109)" d="m0 0 23 1 16 2 6 4 3 3v2l-11 1h-26v17l-1 44h-14l-1-1v-15l2-55z" fill="#A8C3C8"/>
<path transform="translate(324,339)" d="m0 0h10l12 4 11 7 4 4-10-2h-10l-11 4-10 7-6 7-4 11v14l4 16 10 19v3l-7-10-9-15-8-16-3-10-1-13 4-13 10-11 10-5z" fill="#A9C3C8"/>
<path transform="translate(1991,571)" d="m0 0 3 3 1 5v11l-6 17-8 15-2 4h-2l-2 5-11 14-7 6-5 5-10 9-10 7-15 9-13 6-18 5-6 1h-13l-11-1-14-8-7-5 2-1 11 5 11 2h22l16-4 16-7 16-10 16-12 13-12 10-11 9-13 8-16 4-13 1-1z" fill="#A8C3C8"/>
<path transform="translate(1422,236)" d="m0 0 1 4-5 20-4 13-3 8-1 6 1 2-6 11-8 11h-2l-2 5h-2l-2 4-5 5-9 8-12 6-11 3-7 1h12l12-2 5 1-3 2-9 3-5 1h-23l-21-4-16-6-13-7-6-4 2-1 15 5 21 4h27l16-4 12-6 10-8 7-6 10-13 12-23 8-24z" fill="#A8C3C8"/>
<path transform="translate(1075,201)" d="m0 0 18 1 8 3 3 3-2 1-3 6-10 2-2 25-1 13v29l-10-5-4-5-1-3 1-32 1-30 1-7z" fill="#A9C3C8"/>
<path transform="translate(1600,246)" d="m0 0 10 1-3 5-8 6-6 8-5 10-4 4-4 5-2 3 1 4-8 13-3 6-12 22-4 8-3-1-2 6-6 10-3 3v4l2-1-2 6-8 14-1 9-2 5 4 2-3 3v-2l-6-1-5-3-1-4 10-19 10-18 15-28 16-30 13-23 9-16 7-9z" fill="#A8C3C8"/>
<path transform="translate(461,449)" d="m0 0 1 2h3l-1 8-9 17-2 4-2 1-1 3h-2l-2 4-9 10-10 9-14 9-14 7-8 3h19l-2 2-14 4-6 1h-10l-14-3-16-8-9-6 2-1 6 3 15 2h15l16-4 12-5 14-9 13-10 15-15 9-15z" fill="#A8C3C8"/>
<path transform="translate(260,667)" d="m0 0h5l-1 6-7 9-12 14-9 11-13 16-8 9-4-1-1-2v-6l2-5 1-6-4 1 6-7 9-11 8-10 9-11 4-6 1 3-2 4 7-3z" fill="#96C3C8"/>
<path transform="translate(1799,382)" d="m0 0 7 1v3l-19 19-7 9-11 12-8 7-5 10-10 11-4 4-2 5-8 11-6 8h-2l-2 5-10 16-3 1-2-2-4 8-3 7-3-1-1-7 8-12 18-22 11-14 13-16 9-12 12-15 9-12 12-14 8-8z" fill="#A8C3C8"/>
<path transform="translate(622,380)" d="m0 0 1 2 5-1 8 3 3 2-1 4-16 8-31 13-24 9-2-1-1-5 5-4 1-5-6-1 4-2 17-6 33-14z" fill="#97C3C8"/>
<path transform="translate(800,130)" d="m0 0 4 2 2 12-8 2-8 6-6 7-4 16-2 9-2 2h-15l1-2v-7l4-8 4-20 5-10 5-4 16-4z" fill="#A9C4C9"/>
<path transform="translate(564,204)" d="m0 0h14l10 4 5 6-16 4-21 7-4 1 2 9 18 41 2 9 3 3h-6l-10-23-8-18-2-5-7-15-3-5-1-9 8-4z" fill="#A8C3C8"/>
<path transform="translate(1606,399)" d="m0 0h1v5l9 1 4 4-5 10-25 40-2 1-9-6-4-4 2-1 3-8 10-16 14-22z" fill="#97C3C8"/>
<path transform="translate(130,526)" d="m0 0h10l12 4 11 8-3 1-9-1-11 4-11 7-13 13-1 2-5-1-8-6-2-1 1-6 12-14 9-7z" fill="#A9C3C8"/>
<path transform="translate(890,303)" d="m0 0 8 1 2 1 10 1 3 2-1 3-16 5-32 6-29 4-4-1v-6l4-2-9-3v-1l47-7z" fill="#A9C3C8"/>
<path transform="translate(1132,165)" d="m0 0h1l1 10 13 1v14l-4 47-1 3h-7l-7-3-1-6h1l3-38z" fill="#96C3C8"/>
<path transform="translate(1334,148)" d="m0 0h13l11 4 9 6-3 1-20 4-4-1v-2l-12 2-6 4-4 2-1 4h-2v3l-2 2-2 5-9 9h-2v10h-4l-2 16-4 12-3 16-3 1 2-18 6-24 8-20 7-13 8-10 5-6 10-6z" fill="#A8C3C8"/>
<path transform="translate(726,333)" d="m0 0v3l-1 2 13 3 2 4-8 5-26 12-17 7-5-1-8-7-4-4 7-1 15-7 21-9 9-5z" fill="#A8C3C8"/>
<path transform="translate(646,206)" d="m0 0 4 4 9 16 3 10v18l-4 12-5 8-4 6-9-2-10-1v-3l10-11 6-10 4-12 1-6v-17l-5-10z" fill="#96C3C8"/>
<path transform="translate(1020,291)" d="m0 0 51 3h19l1-2 5 4 6 5v4l-2 1h-14l-45-2-18-2-1-1v-9z" fill="#A8C3C8"/>
<path transform="translate(592,300)" d="m0 0h8l8 4 9 7 1 2h-7l-17 6h-2l4 13 8 18 5 15 1 2-3-1-8-13-5-11-12-26-2-5v-6z" fill="#A7C3C8"/>
<path transform="translate(1160,106)" d="m0 0 12 1 1 1v23l-1 17-1 6h-10l-5-1-1-6h2l2-36z" fill="#96C3C8"/>
<path transform="translate(913,107)" d="m0 0h9l3 13 5 26v10l-9 3h-8l-3-1 1-7 1-2-3-1 10-1-2-16-4-21z" fill="#8FBFC4"/>
<path transform="translate(213,569)" d="m0 0 1 2-3 9-2 8-5 6h-3l-1 4 5-3-2 5-4 9-1 5 5 2-2 4-10 10-4-4-9-6v-4l7-7 11-14 8-10z" fill="#A8C3C8"/>
<path transform="translate(862,163)" d="m0 0 2 4 5 25 4 23 4 20 3 16 2 10-1 4-7-17-2-10-2-1-11-62 1-5h2z" fill="#95C3C8"/>
<path transform="translate(316,355)" d="m0 0h1v11l-5 8-2 7v14l4 16 10 19v3l-7-10-9-15-8-16-1-13 2-4v-10l6-2 5-6z" fill="#96C3C8"/>
<path transform="translate(622,380)" d="m0 0 1 2 5-1 8 3v1l-11 2-12 5-5 3-10 4-24 11-5 3-2-1 2-2 1-5-6-1 4-2 17-6 33-14z" fill="#A8C3C8"/>
<path transform="translate(1606,399)" d="m0 0h1v5l9 1 2 2h-4l-2 4h-2l-2 5-6 10-2-2-4 5-4 6-1 5-4 6h-2v2l-7 2 1-7 14-23 11-17z" fill="#A8C3C8"/>
<path transform="translate(730,342)" d="m0 0h7l3 3-8 5-26 12-17 7-5-1-2-1 1-3 15-8 29-13z" fill="#97C3C8"/>
<path transform="translate(1083,126)" d="m0 0 4 3 1 5 1-5h1v41l-1 9-4-2-2 1-3-15-3-3v-8l3-1 2-16z" fill="#96C3C8"/>
<path transform="translate(245,668)" d="m0 0 1 3-2 4 9-3-12 14-6 8-6 4-4 8-8 10-4 6-2 7h-1v-6l2-5 1-6-4 1 6-7 9-11 8-10 9-11z" fill="#A8C3C8"/>
<path transform="translate(877,230)" d="m0 0 2 2 10 52 2 5 2 2-5-1-6-4-5-15-6-29v-7l2 3 3 13 5 10-5-26z" fill="#A8C3C8"/>
<path transform="translate(767,162)" d="m0 0 2 1v2h11v10l-2 9-2 2h-15l1-2v-7l4-8z" fill="#96C3C8"/>
<path transform="translate(1077,212)" d="m0 0 5 1 3 9 1 19-2 34-5 3 1-7v-16l-1-18-3-8 1-3 4 4-1-13-3-1z" fill="#95C3C8"/>
<path transform="translate(913,107)" d="m0 0h9l3 13 5 26v7h-1l-5-23-2-1v20l-2-3-4-21-3-15z" fill="#A7C3C8"/>
<path transform="translate(1293,261)" d="m0 0h1l-2 42 2 4-5-5-6-10-1-11v-9l3-1 4 4z" fill="#A9C3C8"/>
<path transform="translate(1135,176)" d="m0 0h12v14l-1 14-1-4-5-2-4-5-1-3z" fill="#A9C3C8"/>
<path transform="translate(1818,612)" d="m0 0 5 1 2 5-2 12v10l1 5-6-5-3-5-2-8v-8z" fill="#A9C3C8"/>
<path transform="translate(1090,292)" d="m0 0 9 6 3 3v4l-2 1h-14l-6-2-7-2-6-1v-1l19-1-1-2-13-1v-1l18-1z" fill="#97C3C8"/>
<path transform="translate(308,382)" d="m0 0h1l2 18 4 13 9 17v3l-7-10-9-15-5-9 1-5 3-1z" fill="#A8C3C8"/>
<path transform="translate(447,376)" d="m0 0 5 5 9 15 6 12 5 14-1 4-9-20-13-25z" fill="#A8C3C8"/>
<path transform="translate(339,515)" d="m0 0 6 2 10 2 20 2v1h-13l-1 3-6 1-15-9z" fill="#95C3C8"/>
<path transform="translate(1073,209)" d="m0 0h1l1 37-1 10-1 14-2 1 1-32z" fill="#95C3C8"/>
<path transform="translate(1422,236)" d="m0 0 1 4-5 20-4 13-3 8-4 2 2-6 7-19 5-20z" fill="#A3C3C8"/>
<path transform="translate(902,307)" d="m0 0h10v4l-5 2h-9l-1-3 1-2z" fill="#95C2C7"/>
<path transform="translate(76,597)" d="m0 0 3 2-8 7h-9l1-5 2-1h10z" fill="#73AAAF"/>
<path transform="translate(114,554)" d="m0 0 4 1-1 6-2 3-5-1-4-4z" fill="#96C3C8"/>
<path transform="translate(640,263)" d="m0 0v3l-3 3 1 4h3v4h-11v-3z" fill="#A3C3C8"/>
<path transform="translate(1417,174)" d="m0 0 4 4 8 14 5 12-1 2-10-19-6-11z" fill="#A8C3C8"/>
<path transform="translate(1133,178)" d="m0 0h1v19l-1 13-2-2v-15z" fill="#A5C3C8"/>
<path transform="translate(1983,543)" d="m0 0 3 3 9 15 2 5-1 3-11-19z" fill="#A8C3C8"/>
<path transform="translate(646,206)" d="m0 0 4 4 9 16 1 6-3-4-10-18z" fill="#A7C3C8"/>
<path transform="translate(339,515)" d="m0 0 6 2 2 1v2l13 1v2l-3 2-2 1-15-9z" fill="#A8C3C8"/>
<path transform="translate(195,621)" d="m0 0 1 4-5 5-7-7 6-1 5 1z" fill="#97C3C8"/>
<path transform="translate(914,147)" d="m0 0h5l2 5h-10l1-3-3-1z" fill="#A7C3C8"/>
<path transform="translate(488,231)" d="m0 0 4 2 6 9-7-2z" fill="#A8C3C8"/>
<path transform="translate(1132,165)" d="m0 0h1l1 10 1 1v14h-1l-1-5h-1z" fill="#9CC3C8"/>
<path transform="translate(779,153)" d="m0 0 1 2-6 9-2-3-1-5 7-2z" fill="#96C3C8"/>
<path transform="translate(211,522)" d="m0 0 4 4 8 13-1 2-7-10-4-7z" fill="#A7C3C8"/>
<path transform="translate(1820,634)" d="m0 0 2 4 2 7-6-5-2-5z" fill="#9CC3C8"/>
<path transform="translate(1813,390)" d="m0 0 5 2 3 3-11 1z" fill="#AAC4C9"/>
<path transform="translate(1814,606)" d="m0 0h1v8l-1 2h-3l1-8z" fill="#A6C3C8"/>
<path transform="translate(1522,386)" d="m0 0 1 2h3l-1 7-3 1-1-8z" fill="#95C3C8"/>
<path transform="translate(881,279)" d="m0 0 4 4 3 5-5-1-2-4z" fill="#E4EDEE"/>
</svg>
